<?xml version="1.0" encoding="UTF-8"?><svg id="Layer_2" xmlns="http://www.w3.org/2000/svg" viewBox="0 0 288.52 288.52"><g id="Layer_1-2"><g><rect x="118.03" y="118.03" width="52.46" height="52.46" fill="#4461ab"/><rect x="177.05" y="177.05" width="52.46" height="52.46" rx="7.87" ry="7.87" fill="#954f9a"/><circle cx="258.36" cy="258.36" r="30.16" fill="#ee701e"/><path d="M283.28,0H5.25C2.35,0,0,2.35,0,5.25V283.28c0,2.9,2.35,5.25,5.25,5.25H165.25c2.9,0,5.25-2.35,5.25-5.25v-41.97c0-2.9-2.35-5.25-5.25-5.25H52.46V52.46H236.07v113.07c0,2.9,2.35,5.25,5.25,5.25h41.97c2.9,0,5.25-2.35,5.25-5.25V5.25c0-2.9-2.35-5.25-5.25-5.25Z" fill="#231e49"/></g></g></svg>